<svg width="20" height="20" viewBox="0 0 20 20" fill="none" xmlns="http://www.w3.org/2000/svg">
<path fill-rule="evenodd" clip-rule="evenodd" d="M3.676 3.12774C3.83422 2.91009 4.03937 2.73344 4.27522 2.61177C4.51107 2.4901 4.77114 2.42676 5.03483 2.42676H14.3767C14.6404 2.42676 14.9005 2.4901 15.1363 2.61177C15.3722 2.73344 15.5773 2.91009 15.7356 3.12774L18.0184 6.26813C18.1327 6.42318 18.1936 6.6131 18.1916 6.80789H18.1984V7.68411C18.1985 8.53787 17.8965 9.36229 17.3492 10.0026V16.4464C17.3492 16.9111 17.1702 17.3569 16.8517 17.6855C16.5331 18.0142 16.1011 18.1988 15.6506 18.1988H3.76093C3.31045 18.1988 2.87842 18.0142 2.55989 17.6855C2.24135 17.3569 2.0624 16.9111 2.0624 16.4464V10.0026C1.51507 9.36229 1.21308 8.53787 1.21313 7.68411V6.80789H1.21993C1.21792 6.6131 1.27888 6.42318 1.39318 6.26813L3.676 3.12774ZM14.8014 9.43656C14.3509 9.43656 13.9189 9.25193 13.6003 8.92328C13.2818 8.59463 13.1028 8.14889 13.1028 7.68411H16.4999C16.4999 8.14889 16.3209 8.59463 16.0024 8.92328C15.6839 9.25193 15.2518 9.43656 14.8014 9.43656ZM9.70578 9.43656C9.2553 9.43656 8.82328 9.25193 8.50474 8.92328C8.1862 8.59463 8.00725 8.14889 8.00725 7.68411H11.4043C11.4043 8.14889 11.2254 8.59463 10.9068 8.92328C10.5883 9.25193 10.1563 9.43656 9.70578 9.43656ZM4.61019 9.43656C4.15972 9.43656 3.72769 9.25193 3.40915 8.92328C3.09062 8.59463 2.91166 8.14889 2.91166 7.68411H6.30872C6.30872 8.14889 6.12977 8.59463 5.81124 8.92328C5.4927 9.25193 5.06067 9.43656 4.61019 9.43656Z" fill="#064E35"/>
</svg>
